<?xml version="1.0" encoding="UTF-8" standalone="no"?>
<!-- Created with Inkscape (http://www.inkscape.org/) -->

<svg
   xmlns:dc="http://purl.org/dc/elements/1.1/"
   xmlns:cc="http://creativecommons.org/ns#"
   xmlns:rdf="http://www.w3.org/1999/02/22-rdf-syntax-ns#"
   xmlns:svg="http://www.w3.org/2000/svg"
   xmlns="http://www.w3.org/2000/svg"
   xmlns:sodipodi="http://sodipodi.sourceforge.net/DTD/sodipodi-0.dtd"
   xmlns:inkscape="http://www.inkscape.org/namespaces/inkscape"
   id="svg2403"
   sodipodi:version="0.32"
   inkscape:version="0.92.4 (5da689c313, 2019-01-14)"
   width="900"
   height="360"
   xml:space="preserve"
   sodipodi:docname="open-access.svg"
   inkscape:output_extension="org.inkscape.output.svg.inkscape"
   version="1.1"><metadata
     id="metadata2408"><rdf:RDF><cc:Work
         rdf:about=""><dc:format>image/svg+xml</dc:format><dc:type
           rdf:resource="http://purl.org/dc/dcmitype/StillImage" /></cc:Work></rdf:RDF></metadata><defs
     id="defs2406"><inkscape:perspective
       sodipodi:type="inkscape:persp3d"
       inkscape:vp_x="0 : 526.18109 : 1"
       inkscape:vp_y="0 : 1000 : 0"
       inkscape:vp_z="744.09448 : 526.18109 : 1"
       inkscape:persp3d-origin="372.04724 : 350.78739 : 1"
       id="perspective2410" /><clipPath
       clipPathUnits="userSpaceOnUse"
       id="clipPath2418"><path
         d="M 0,288 L 720,288 L 720,0 L 0,0 L 0,288 z"
         id="path2420" /></clipPath></defs><sodipodi:namedview
     inkscape:window-height="1046"
     inkscape:window-width="1920"
     inkscape:pageshadow="2"
     inkscape:pageopacity="0.0"
     guidetolerance="10.0"
     gridtolerance="10.0"
     objecttolerance="10.0"
     borderopacity="1.0"
     bordercolor="#666666"
     pagecolor="#ffffff"
     id="base"
     showgrid="false"
     inkscape:zoom="0.85481352"
     inkscape:cx="738.53938"
     inkscape:cy="134.98226"
     inkscape:window-x="0"
     inkscape:window-y="16"
     inkscape:current-layer="g2416"
     inkscape:window-maximized="0" /><g
     id="g2412"
     inkscape:groupmode="layer"
     inkscape:label="Open Access logo"
     transform="matrix(1.25,0,0,-1.25,0,360)"><g
       id="g2414"><g
         id="g2416"
         clip-path="url(#clipPath2418)"><path
           d="M 262.883,200.896 L 262.883,192.05 L 288.822,192.05 L 288.822,200.896 C 288.822,222.308 306.243,239.727 327.652,239.727 C 349.061,239.727 366.481,222.308 366.481,200.896 L 366.481,136.911 L 392.42,136.911 L 392.42,200.896 C 392.42,236.609 363.364,265.665 327.652,265.665 C 291.941,265.665 262.883,236.609 262.883,200.896"
           style="fill:#f68212;fill-opacity:1;fill-rule:nonzero;stroke:none"
           id="path2424" /><path
           d="M 349.153,99.568 C 349.153,87.752 339.573,78.172 327.754,78.172 C 315.936,78.172 306.355,87.752 306.355,99.568 C 306.355,111.391 315.936,120.972 327.754,120.972 C 339.573,120.972 349.153,111.391 349.153,99.568"
           style="fill:#f68212;fill-opacity:1;fill-rule:nonzero;stroke:none"
           id="path2426" /><path
           d="M 277.068,99.799 C 277.068,127.61 299.695,150.235 327.505,150.235 C 355.314,150.235 377.938,127.61 377.938,99.799 C 377.938,71.991 355.314,49.362 327.505,49.362 C 299.695,49.362 277.068,71.991 277.068,99.799 M 251.13,99.799 C 251.13,57.691 285.395,23.426 327.505,23.426 C 369.616,23.426 403.878,57.691 403.878,99.799 C 403.878,141.913 369.616,176.174 327.505,176.174 C 285.395,176.174 251.13,141.913 251.13,99.799"
           style="fill:#f68212;fill-opacity:1;fill-rule:nonzero;stroke:none"
           id="path2428" /><path
           d="M 51.742,106.854 C 59.69,106.854 64.241,114.339 64.241,124.521 C 64.241,133.86 59.845,141.889 51.742,141.889 C 43.639,141.889 39.085,134.019 39.085,124.293 C 39.085,114.49 43.793,106.854 51.666,106.854 L 51.742,106.854 z M 51.202,97.513 C 35.846,97.513 26.741,109.166 26.741,123.981 C 26.741,139.575 36.771,151.221 52.051,151.221 C 68.023,151.221 76.742,139.265 76.742,124.911 C 76.742,107.776 66.478,97.513 51.277,97.513 L 51.202,97.513 z"
           style="fill:#f68212;fill-opacity:1;fill-rule:nonzero;stroke:none"
           id="path2430" /><path
           d="M 98.851,126.071 C 99.852,125.834 101.088,125.761 102.782,125.761 C 109.036,125.761 112.892,128.925 112.892,134.17 C 112.892,138.955 109.651,141.809 103.711,141.809 C 101.319,141.809 99.698,141.656 98.851,141.427 L 98.851,126.071 z M 87.198,149.679 C 90.823,150.297 95.918,150.758 103.095,150.758 C 110.345,150.758 115.594,149.375 119.066,146.515 C 122.386,143.972 124.546,139.647 124.546,134.554 C 124.546,129.386 122.925,125.064 119.838,122.209 C 115.824,118.506 109.807,116.731 102.861,116.731 C 101.319,116.731 99.929,116.807 98.851,117.043 L 98.851,98.363 L 87.198,98.363 L 87.198,149.679 z"
           style="fill:#f68212;fill-opacity:1;fill-rule:nonzero;stroke:none"
           id="path2432" /><path
           d="M 165.711,120.357 L 146.572,120.357 L 146.572,108.014 L 167.948,108.014 L 167.948,98.363 L 134.845,98.363 L 134.845,150.376 L 166.868,150.376 L 166.868,140.729 L 146.572,140.729 L 146.572,129.926 L 165.711,129.926 L 165.711,120.357 z"
           style="fill:#f68212;fill-opacity:1;fill-rule:nonzero;stroke:none"
           id="path2434" /><path
           d="M 181.763,98.363 L 181.763,150.376 L 195.497,150.376 L 206.298,131.317 C 209.389,125.834 212.395,119.356 214.787,113.49 L 214.944,113.49 C 214.25,120.357 214.015,127.378 214.015,135.252 L 214.015,150.376 L 224.82,150.376 L 224.82,98.363 L 212.474,98.363 L 201.362,118.427 C 198.274,124.063 194.802,130.697 192.333,136.793 L 192.024,136.793 C 192.408,129.849 192.564,122.52 192.564,114.031 L 192.564,98.363 L 181.763,98.363 z"
           style="fill:#f68212;fill-opacity:1;fill-rule:nonzero;stroke:none"
           id="path2436" /><path
           d="M 450.392,120.509 L 447.153,131.547 C 446.304,134.632 445.375,138.566 444.604,141.579 L 444.378,141.579 C 443.68,138.494 442.83,134.56 442.058,131.547 L 438.898,120.509 L 450.392,120.509 z M 437.196,111.718 L 433.573,98.363 L 421.377,98.363 L 437.273,150.376 L 452.634,150.376 L 468.833,98.363 L 456.179,98.363 L 452.165,111.718 L 437.196,111.718 z"
           style="fill:#f68212;fill-opacity:1;fill-rule:nonzero;stroke:none"
           id="path2438" /><path
           d="M 513.19,99.755 C 511.107,98.752 506.17,97.513 499.918,97.513 C 481.939,97.513 472.678,108.784 472.678,123.672 C 472.678,141.427 485.336,151.226 501.075,151.226 C 507.175,151.226 511.802,149.988 513.886,148.907 L 511.419,139.647 C 509.1,140.648 505.788,141.579 501.539,141.579 C 492.278,141.579 485.023,135.944 485.023,124.293 C 485.023,113.879 491.198,107.315 501.618,107.315 C 505.239,107.315 509.1,108.014 511.493,109.015 L 513.19,99.755 z"
           style="fill:#f68212;fill-opacity:1;fill-rule:nonzero;stroke:none"
           id="path2440" /><path
           d="M 559.468,99.755 C 557.383,98.752 552.448,97.513 546.192,97.513 C 528.215,97.513 518.954,108.784 518.954,123.672 C 518.954,141.427 531.612,151.226 547.353,151.226 C 553.45,151.226 558.078,149.988 560.162,148.907 L 557.693,139.647 C 555.38,140.648 552.057,141.579 547.814,141.579 C 538.555,141.579 531.301,135.944 531.301,124.293 C 531.301,113.879 537.476,107.315 547.891,107.315 C 551.521,107.315 555.38,108.014 557.769,109.015 L 559.468,99.755 z"
           style="fill:#f68212;fill-opacity:1;fill-rule:nonzero;stroke:none"
           id="path2442" /><path
           d="M 603.989,120.357 L 584.852,120.357 L 584.852,108.014 L 606.229,108.014 L 606.229,98.363 L 573.124,98.363 L 573.124,150.376 L 605.151,150.376 L 605.151,140.729 L 584.852,140.729 L 584.852,129.926 L 603.989,129.926 L 603.989,120.357 z"
           style="fill:#f68212;fill-opacity:1;fill-rule:nonzero;stroke:none"
           id="path2444" /><path
           d="M 620.428,110.406 C 623.513,108.784 628.452,107.162 633.468,107.162 C 638.867,107.162 641.726,109.398 641.726,112.87 C 641.726,116.033 639.258,117.965 633.005,120.126 C 624.363,123.211 618.65,127.996 618.65,135.635 C 618.65,144.511 626.137,151.226 638.329,151.226 C 644.271,151.226 648.513,150.066 651.602,148.604 L 648.977,139.186 C 646.973,140.188 643.187,141.656 638.179,141.656 C 633.079,141.656 630.613,139.265 630.613,136.641 C 630.613,133.321 633.468,131.858 640.259,129.235 C 649.441,125.834 653.688,121.056 653.688,113.646 C 653.688,104.921 647.052,97.513 632.774,97.513 C 626.833,97.513 620.965,99.134 618.035,100.756 L 620.428,110.406 z"
           style="fill:#f68212;fill-opacity:1;fill-rule:nonzero;stroke:none"
           id="path2446" /><path
           d="M 664.835,110.406 C 667.922,108.784 672.858,107.162 677.873,107.162 C 683.277,107.162 686.133,109.398 686.133,112.87 C 686.133,116.033 683.662,117.965 677.409,120.126 C 668.771,123.211 663.061,127.996 663.061,135.635 C 663.061,144.511 670.54,151.226 682.734,151.226 C 688.678,151.226 692.922,150.066 696.009,148.604 L 693.386,139.186 C 691.381,140.188 687.6,141.656 682.582,141.656 C 677.488,141.656 675.021,139.265 675.021,136.641 C 675.021,133.321 677.873,131.858 684.665,129.235 C 693.846,125.834 698.091,121.056 698.091,113.646 C 698.091,104.921 691.454,97.513 677.178,97.513 C 671.24,97.513 665.373,99.134 662.444,100.756 L 664.835,110.406 z"
           style="fill:#f68212;fill-opacity:1;fill-rule:nonzero;stroke:none"
           id="path2448" /></g></g></g></svg>